<?xml version="1.0" encoding="UTF-8"?>
<svg id="Layer_2" xmlns="http://www.w3.org/2000/svg" version="1.1" viewBox="0 0 5446 932.3">
  <!-- Generator: Adobe Illustrator 29.1.0, SVG Export Plug-In . SVG Version: 2.1.0 Build 142)  -->
  <defs>
    <style>
      .st0 {
        fill: #f90d29;
      }
    </style>
  </defs>
  <g>
    <rect class="st0" x="922.2" y="17.1" width="113.5" height="901"/>
    <rect class="st0" x="1941.6" y="17.1" width="113.5" height="901"/>
    <polygon class="st0" points="796.9 918.1 676.1 918.1 405.7 175.1 135.3 918.1 14.5 918.1 342.5 17.1 469 17.1 796.9 918.1"/>
    <path class="st0" d="M1538.4,916.2h-346.1v-113.5h346.1c77.3,0,140.2-62.9,140.2-140.2s-62.9-140.3-140.2-140.3h-94.7c-139.9,0-253.7-113.8-253.7-253.7S1303.8,14.8,1443.6,14.8h348.4v113.5h-348.4c-77.3,0-140.2,62.9-140.2,140.2s62.9,140.2,140.2,140.2h94.7c139.9,0,253.7,113.8,253.7,253.7s-113.8,253.7-253.7,253.7Z"/>
  </g>
  <rect x="2348.5" y="17.3" width="23.5" height="900.6"/>
  <g>
    <path d="M2768.2,387l-45.9-117.4h-147.9l-45.4,117.4h-43.4l145.9-370.5h36.1l145.1,370.5h-44.4ZM2708.8,231.1l-42.9-114.3c-5.6-14.5-11.3-32.2-17.2-53.3-3.7,16.2-9,33.9-15.9,53.3l-43.4,114.3h119.4Z"/>
    <path d="M2865.9,387V18h42.9v369h-42.9Z"/>
    <path d="M3357.7,288.9c0,32.5-11.8,57.8-35.3,76-23.6,18.2-55.5,27.3-95.9,27.3s-77.4-5.6-101-16.9v-41.4c15.1,6.4,31.6,11.4,49.5,15.1,17.8,3.7,35.5,5.6,53,5.6,28.6,0,50.1-5.4,64.6-16.3,14.5-10.9,21.7-26,21.7-45.3s-2.6-23.3-7.7-31.4c-5.1-8.2-13.7-15.7-25.7-22.6-12-6.9-30.3-14.7-54.9-23.5-34.3-12.3-58.9-26.8-73.6-43.7-14.7-16.8-22.1-38.8-22.1-65.9s10.7-51.1,32.1-67.9c21.4-16.8,49.6-25.2,84.8-25.2s70.4,6.7,101.2,20.2l-13.4,37.4c-30.5-12.8-60.1-19.2-88.8-19.2s-40.5,4.9-53.3,14.6c-12.8,9.8-19.2,23.3-19.2,40.6s2.4,23.3,7.1,31.4c4.7,8.2,12.7,15.6,23.9,22.5,11.2,6.8,28.3,14.3,51.4,22.6,38.7,13.8,65.3,28.6,79.9,44.4,14.6,15.8,21.8,36.3,21.8,61.6Z"/>
    <path d="M3641.4,387h-205.7V18h205.7v38.1h-162.8v118.9h153v37.9h-153v135.8h162.8v38.4Z"/>
    <path d="M3883.8,51.1c-40.6,0-72.6,13.5-96,40.5-23.5,27-35.2,64-35.2,110.9s11.3,85.6,33.9,111.9c22.6,26.3,54.9,39.5,96.8,39.5s55.1-4.6,88.1-13.9v37.6c-25.6,9.6-57.1,14.4-94.6,14.4-54.4,0-96.3-16.5-125.8-49.5-29.5-33-44.3-79.8-44.3-140.6s7.1-71.3,21.3-99.9c14.2-28.6,34.7-50.6,61.6-66.1,26.8-15.5,58.4-23.2,94.8-23.2s72.5,7.1,101.5,21.2l-18.2,36.8c-27.9-13.1-55.9-19.7-83.8-19.7Z"/>
    <path d="M4333.1,18v238.8c0,42.1-12.7,75.1-38.1,99.2-25.4,24.1-60.3,36.1-104.7,36.1s-78.8-12.1-103.1-36.3c-24.3-24.2-36.5-57.5-36.5-99.9V18h42.9v240.8c0,30.8,8.4,54.4,25.2,70.9,16.8,16.5,41.6,24.7,74.2,24.7s55.1-8.3,71.9-24.9c16.8-16.6,25.2-40.3,25.2-71.3V18h42.9Z"/>
    <path d="M4476.3,233.6v153.5h-42.9V18h101.2c45.3,0,78.7,8.7,100.3,26,21.6,17.3,32.4,43.4,32.4,78.2s-24.7,81.8-74.2,98.9l100.2,165.8h-50.7l-89.3-153.5h-77ZM4476.3,196.7h58.8c30.3,0,52.5-6,66.6-18,14.1-12,21.2-30.1,21.2-54.1s-7.2-42-21.6-52.8c-14.4-10.8-37.5-16.2-69.3-16.2h-55.8v141.1Z"/>
    <path d="M4755.5,387V18h42.9v369h-42.9Z"/>
    <path d="M5015.8,387h-42.9V56.2h-116.9V18h276.6v38.1h-116.9v330.9Z"/>
    <path d="M5301.2,202.5l98.4-184.5h46.4l-123.2,225.9v143.1h-43.4v-141.1l-122.9-227.9h46.9l97.7,184.5Z"/>
    <path d="M2536.2,920.4v-369h42.9v369h-42.9Z"/>
    <path d="M2981.5,920.4h-49l-201.7-309.7h-2c2.7,36.3,4,69.7,4,99.9v209.7h-39.6v-369h48.5l201.2,308.4h2c-.3-4.5-1.1-19.1-2.3-43.8-1.2-24.6-1.6-42.3-1.3-52.9v-211.8h40.1v369Z"/>
    <path d="M3304.1,822.2c0,32.5-11.8,57.8-35.3,76-23.6,18.2-55.5,27.3-95.9,27.3s-77.4-5.6-101-16.9v-41.4c15.1,6.4,31.6,11.4,49.5,15.1,17.8,3.7,35.5,5.6,53,5.6,28.6,0,50.1-5.4,64.6-16.3,14.5-10.9,21.7-26,21.7-45.3s-2.6-23.3-7.7-31.4c-5.1-8.2-13.7-15.7-25.7-22.6-12-6.9-30.3-14.7-54.9-23.5-34.3-12.3-58.9-26.8-73.6-43.7-14.7-16.8-22.1-38.8-22.1-65.9s10.7-51.1,32.1-67.9c21.4-16.8,49.6-25.2,84.8-25.2s70.4,6.7,101.2,20.2l-13.4,37.4c-30.5-12.8-60.1-19.2-88.8-19.2s-40.5,4.9-53.3,14.6c-12.8,9.8-19.2,23.3-19.2,40.6s2.4,23.3,7.1,31.4c4.7,8.2,12.7,15.6,23.9,22.5,11.2,6.8,28.3,14.3,51.4,22.6,38.7,13.8,65.3,28.6,79.9,44.4,14.6,15.8,21.8,36.3,21.8,61.6Z"/>
    <path d="M3506.1,920.4h-42.9v-330.9h-116.9v-38.1h276.6v38.1h-116.9v330.9Z"/>
    <path d="M3691.4,920.4v-369h42.9v369h-42.9Z"/>
    <path d="M3962,920.4h-42.9v-330.9h-116.9v-38.1h276.6v38.1h-116.9v330.9Z"/>
    <path d="M4426,551.4v238.8c0,42.1-12.7,75.1-38.1,99.2-25.4,24.1-60.3,36.1-104.7,36.1s-78.8-12.1-103.1-36.3c-24.3-24.2-36.5-57.5-36.5-99.9v-237.8h42.9v240.8c0,30.8,8.4,54.4,25.2,70.9,16.8,16.5,41.6,24.7,74.2,24.7s55.1-8.3,71.9-24.9c16.8-16.6,25.2-40.3,25.2-71.3v-240.3h42.9Z"/>
    <path d="M4650.1,920.4h-42.9v-330.9h-116.9v-38.1h276.6v38.1h-116.9v330.9Z"/>
    <path d="M5041.1,920.4h-205.7v-369h205.7v38.1h-162.8v118.9h153v37.9h-153v135.8h162.8v38.4Z"/>
  </g>
</svg>
